<svg width="21" height="21" viewBox="0 0 21 21" fill="none" xmlns="http://www.w3.org/2000/svg">
<path d="M8.45834 13.4167C8.11668 13.4167 7.83334 13.7001 7.83334 14.0417V15.2917C7.83334 15.6334 8.11668 15.9167 8.45834 15.9167C8.80001 15.9167 9.08334 15.6334 9.08334 15.2917V14.0417C9.08334 13.7001 8.80001 13.4167 8.45834 13.4167Z" fill="#1769FF"/>
<path d="M18.4583 18.2083H17.625V8.8166C17.625 8.29993 17.3917 7.8166 16.9833 7.49993L11.15 2.9666C10.55 2.4916 9.69999 2.4916 9.09999 2.9666L3.26666 7.49993C2.85832 7.8166 2.62499 8.29994 2.62499 8.80827L2.58332 18.2083H1.79166C1.44999 18.2083 1.16666 18.4833 1.16666 18.8333C1.16666 19.1749 1.44999 19.4583 1.79166 19.4583H18.4583C18.8 19.4583 19.0833 19.1749 19.0833 18.8333C19.0833 18.4833 18.8 18.2083 18.4583 18.2083ZM8.87499 6.12493H11.375C11.7167 6.12493 12 6.40827 12 6.74993C12 7.0916 11.7167 7.37493 11.375 7.37493H8.87499C8.53332 7.37493 8.24999 7.0916 8.24999 6.74993C8.24999 6.40827 8.53332 6.12493 8.87499 6.12493ZM14.2917 18.2083H5.95832V10.9166C5.95832 10.2249 6.51666 9.6666 7.20832 9.6666H13.0417C13.7333 9.6666 14.2917 10.2249 14.2917 10.9166V18.2083Z" fill="#1769FF"/>
</svg>
