<svg width="21" height="21" viewBox="0 0 21 21" fill="none" xmlns="http://www.w3.org/2000/svg">
<path d="M8.12502 18.8334H13.125C17.2917 18.8334 18.9584 17.1667 18.9584 13.0001V8.00008C18.9584 3.83341 17.2917 2.16675 13.125 2.16675H8.12502C3.95835 2.16675 2.29169 3.83341 2.29169 8.00008V13.0001C2.29169 17.1667 3.95835 18.8334 8.12502 18.8334Z" stroke="#9CA3AF" stroke-width="1.5" stroke-linecap="round" stroke-linejoin="round"/>
<path d="M2.29169 11.3333H5.42502C6.05835 11.3333 6.63335 11.6916 6.91669 12.2583L7.65835 13.75C8.12502 14.6666 8.95835 14.6666 9.15835 14.6666H12.1C12.7334 14.6666 13.3084 14.3083 13.5917 13.7416L14.3334 12.25C14.6167 11.6833 15.1917 11.325 15.825 11.325H18.9417" stroke="#9CA3AF" stroke-width="1.5" stroke-linecap="round" stroke-linejoin="round"/>
<path d="M9.24164 6.33325H12.0166" stroke="#9CA3AF" stroke-width="1.5" stroke-linecap="round" stroke-linejoin="round"/>
<path d="M8.54169 8.83325H12.7084" stroke="#9CA3AF" stroke-width="1.5" stroke-linecap="round" stroke-linejoin="round"/>
</svg>
