<svg width="21" height="21" viewBox="0 0 21 21" fill="none" xmlns="http://www.w3.org/2000/svg">
<path d="M17.4584 13.8333V15.9167C17.4584 17.525 16.1501 18.8333 14.5417 18.8333H6.20841C4.60008 18.8333 3.29175 17.525 3.29175 15.9167V15.375C3.29175 14.0667 4.35841 13 5.66675 13H16.6251C17.0834 13 17.4584 13.375 17.4584 13.8333Z" fill="#1769FF"/>
<path d="M7.45874 2.66675H13.2917C14.9616 2.66675 15.8052 2.8875 16.2712 3.35327C16.7372 3.81927 16.9587 4.6635 16.9587 6.33374V10.9167C16.9587 11.0989 16.8069 11.2498 16.6248 11.2498H5.66675C4.99195 11.2498 4.35384 11.4158 3.79175 11.7068V6.33374L3.80249 5.74487C3.85115 4.45817 4.07053 3.76101 4.47827 3.35327C4.88601 2.94553 5.58317 2.72615 6.86987 2.67749L7.45874 2.66675ZM7.04175 7.70874C6.42394 7.70874 5.91675 8.21593 5.91675 8.83374C5.91693 9.4514 6.42405 9.95874 7.04175 9.95874H11.2087C11.8263 9.95856 12.3336 9.45129 12.3337 8.83374C12.3337 8.21604 11.8264 7.70892 11.2087 7.70874H7.04175ZM7.04175 4.79175C6.42394 4.79175 5.91675 5.29894 5.91675 5.91675C5.91675 6.53456 6.42394 7.04175 7.04175 7.04175H13.7087C14.3264 7.04157 14.8337 6.53445 14.8337 5.91675C14.8337 5.29905 14.3264 4.79193 13.7087 4.79175H7.04175Z" fill="#1769FF" stroke="#1769FF"/>
</svg>
