<svg width="36" height="36" viewBox="0 0 36 36" fill="none" xmlns="http://www.w3.org/2000/svg">
<rect width="36" height="36" rx="18" fill="#F3F4F6"/>
<path d="M14.8 26.3334C11.3167 26.3334 10.6167 24.2251 11.75 21.6584L15.2917 13.6167H15.0417C14.5 13.6167 14 13.4001 13.6417 13.0417C13.275 12.6834 13.0583 12.1834 13.0583 11.6417C13.0583 10.5584 13.9417 9.66675 15.0333 9.66675H20.9583C21.5083 9.66675 22 9.89175 22.3583 10.2501C22.825 10.7167 23.0583 11.4001 22.8833 12.1251C22.6583 13.0251 21.7917 13.6167 20.8667 13.6167H20.7333L24.25 21.6667C25.375 24.2334 24.6417 26.3334 21.1917 26.3334H14.8Z" stroke="#111827" stroke-width="1.5" stroke-linecap="round" stroke-linejoin="round"/>
<path d="M12.95 18.9334C12.95 18.9334 15.5 18.8334 18 19.6667C20.5 20.5001 22.8583 18.925 22.8583 18.925" stroke="#111827" stroke-width="1.5" stroke-linecap="round" stroke-linejoin="round"/>
</svg>
