<svg width="21" height="21" viewBox="0 0 21 21" fill="none" xmlns="http://www.w3.org/2000/svg">
<path d="M11.0083 9.55841C10.925 9.55008 10.825 9.55008 10.7333 9.55841C8.74999 9.49175 7.17499 7.86675 7.17499 5.86675C7.17499 3.82508 8.82499 2.16675 10.875 2.16675C12.9167 2.16675 14.575 3.82508 14.575 5.86675C14.5667 7.86675 12.9917 9.49175 11.0083 9.55841Z" stroke="#9CA3AF" stroke-width="1.5" stroke-linecap="round" stroke-linejoin="round"/>
<path d="M6.84166 12.6333C4.825 13.9833 4.825 16.1833 6.84166 17.5249C9.13333 19.0583 12.8917 19.0583 15.1833 17.5249C17.2 16.1749 17.2 13.9749 15.1833 12.6333C12.9 11.1083 9.14166 11.1083 6.84166 12.6333Z" stroke="#9CA3AF" stroke-width="1.5" stroke-linecap="round" stroke-linejoin="round"/>
</svg>
